<svg width="135" height="24" viewBox="0 0 135 24" fill="none" xmlns="http://www.w3.org/2000/svg">
<g id="logo">
<path id="Fill 10" fill-rule="evenodd" clip-rule="evenodd" d="M46.7155 11.2749C46.7155 10.9162 46.6665 10.5721 46.5658 10.2441C46.465 9.9161 46.3087 9.62692 46.0926 9.37792C45.8766 9.12757 45.6036 8.92809 45.2723 8.78083C44.9409 8.63223 44.5526 8.55859 44.1073 8.55859C43.275 8.55859 42.5713 8.81162 41.9935 9.31901C41.4157 9.8264 41.0963 10.4784 41.0353 11.2749H46.7155ZM49.4881 12.5401C49.4881 12.6646 49.4881 12.7891 49.4881 12.9149C49.4881 13.0395 49.4802 13.164 49.4643 13.2885H41.0354C41.0658 13.6954 41.1705 14.0663 41.3468 14.401C41.5244 14.737 41.759 15.0262 42.0519 15.2685C42.3434 15.5108 42.6748 15.7022 43.0445 15.8428C43.4143 15.982 43.7986 16.053 44.1988 16.053C44.892 16.053 45.4764 15.9245 45.9549 15.6661C46.4306 15.4091 46.8243 15.0543 47.1317 14.6004L48.9792 16.0999C47.8858 17.5993 46.3008 18.349 44.2214 18.349C43.3599 18.349 42.5674 18.2111 41.8438 17.938C41.1202 17.6649 40.492 17.2793 39.9619 16.7786C39.4304 16.2793 39.0143 15.6661 38.7148 14.9405C38.4139 14.2149 38.2642 13.3902 38.2642 12.4691C38.2642 11.5641 38.4139 10.7395 38.7148 9.99779C39.0143 9.25745 39.4264 8.62422 39.9499 8.10076C40.4734 7.57865 41.0937 7.17167 41.8093 6.88383C42.525 6.59466 43.299 6.45007 44.1299 6.45007C44.8999 6.45007 45.6116 6.57859 46.2663 6.83698C46.9197 7.09402 47.4856 7.4769 47.964 7.98429C48.4411 8.49168 48.8135 9.12358 49.0826 9.88132C49.3529 10.6391 49.4881 11.524 49.4881 12.5401Z" fill="#0B2F37"/>
<path id="Fill 11" fill-rule="evenodd" clip-rule="evenodd" d="M49.6641 6.7782H52.6897L55.5987 14.9754H55.6465L58.578 6.7782H61.5109L57.1003 18.0198H54.1449L49.6641 6.7782Z" fill="#0B2F37"/>
<path id="Fill 12" fill-rule="evenodd" clip-rule="evenodd" d="M70.107 11.2749C70.107 10.9162 70.0567 10.5721 69.956 10.2441C69.8566 9.9161 69.6988 9.62692 69.4841 9.37792C69.2668 9.12757 68.9938 8.92809 68.6638 8.78083C68.3325 8.63223 67.9442 8.55859 67.4975 8.55859C66.6652 8.55859 65.9615 8.81162 65.385 9.31901C64.8072 9.8264 64.4878 10.4784 64.4268 11.2749H70.107ZM72.8782 12.5401C72.8782 12.6646 72.8782 12.7891 72.8782 12.9149C72.8782 13.0395 72.8703 13.164 72.8544 13.2885H64.4268C64.4573 13.6954 64.5607 14.0663 64.7369 14.401C64.9145 14.737 65.1491 15.0262 65.442 15.2685C65.7336 15.5108 66.0649 15.7022 66.4346 15.8428C66.8044 15.982 67.1901 16.053 67.5903 16.053C68.2821 16.053 68.8679 15.9245 69.345 15.6661C69.8221 15.4091 70.2144 15.0543 70.5232 14.6004L72.3707 16.0999C71.276 17.5993 69.6909 18.349 67.6128 18.349C66.7501 18.349 65.9575 18.2111 65.2339 17.938C64.5103 17.6649 63.8834 17.2793 63.352 16.7786C62.8206 16.2793 62.4057 15.6661 62.1049 14.9405C61.8054 14.2149 61.6543 13.3902 61.6543 12.4691C61.6543 11.5641 61.8054 10.7395 62.1049 9.99779C62.4057 9.25745 62.8166 8.62422 63.3401 8.10076C63.8636 7.57865 64.4838 7.17167 65.1995 6.88383C65.9151 6.59466 66.6891 6.45007 67.5214 6.45007C68.2901 6.45007 69.0017 6.57859 69.6564 6.83698C70.3111 7.09402 70.877 7.4769 71.3542 7.98429C71.8313 8.49168 72.205 9.12358 72.474 9.88132C72.7431 10.6391 72.8782 11.524 72.8782 12.5401Z" fill="#0B2F37"/>
<path id="Fill 13" fill-rule="evenodd" clip-rule="evenodd" d="M74.9785 6.77807H77.6344V8.651H77.6808C77.9883 7.99634 78.4203 7.46485 78.9743 7.05921C79.5283 6.65356 80.175 6.45007 80.9145 6.45007C81.0219 6.45007 81.1359 6.45409 81.2604 6.46212C81.3824 6.47015 81.491 6.4889 81.5838 6.52103V9.0968C81.3983 9.04995 81.2405 9.01915 81.1093 9.00309C80.9795 8.98702 80.8522 8.98033 80.729 8.98033C80.0981 8.98033 79.5892 9.0968 79.2049 9.33109C78.8192 9.56403 78.5197 9.84651 78.3037 10.1745C78.089 10.5025 77.9419 10.8385 77.865 11.1813C77.7881 11.524 77.7497 11.7984 77.7497 12.0006V18.0196H74.9785V6.77807Z" fill="#0B2F37"/>
<path id="Fill 14" fill-rule="evenodd" clip-rule="evenodd" d="M96.1052 6.45007C96.8288 6.45007 97.4477 6.57859 97.9646 6.83698C98.4788 7.09402 98.9029 7.43406 99.2342 7.85577C99.5655 8.27748 99.8067 8.76077 99.9618 9.30699C100.116 9.85454 100.192 10.4168 100.192 10.9938V18.0196H97.4212V11.7904C97.4212 11.4624 97.3973 11.1197 97.3523 10.7595C97.3059 10.4008 97.2052 10.0768 97.0514 9.7876C96.8977 9.49843 96.6857 9.26147 96.4166 9.07271C96.1476 8.88528 95.7898 8.79157 95.3431 8.79157C94.9111 8.79157 94.5426 8.88528 94.2338 9.07271C93.9264 9.26147 93.6719 9.50245 93.4731 9.79965C93.2717 10.0969 93.1259 10.4289 93.0331 10.7957C92.9417 11.1612 92.8953 11.524 92.8953 11.8841V18.0196H90.1241V11.2281C90.1241 10.5253 89.9584 9.94424 89.6271 9.48237C89.2958 9.02317 88.7763 8.79157 88.0686 8.79157C87.6524 8.79157 87.2906 8.8826 86.9831 9.062C86.6744 9.24139 86.4252 9.47166 86.233 9.7528C86.0395 10.0339 85.8937 10.3579 85.7944 10.7247C85.6936 11.0916 85.6433 11.4624 85.6433 11.8372V18.0196H82.8721V6.77807H85.5054V8.58138H85.5518C85.6738 8.30024 85.8394 8.03517 86.0475 7.78482C86.2556 7.53581 86.5021 7.30956 86.787 7.10607C87.0706 6.90257 87.3993 6.74326 87.7677 6.62545C88.1375 6.50898 88.5457 6.45007 88.9923 6.45007C89.8537 6.45007 90.5707 6.64553 91.1393 7.03511C91.7092 7.42603 92.1478 7.94145 92.4553 8.58138C92.8251 7.8946 93.3181 7.36712 93.9343 7.0003C94.5506 6.63348 95.2729 6.45007 96.1052 6.45007Z" fill="#0B2F37"/>
<path id="Fill 15" fill-rule="evenodd" clip-rule="evenodd" d="M105.019 12.3526C105.019 12.789 105.084 13.2268 105.215 13.6646C105.347 14.101 105.543 14.4919 105.804 14.8347C106.066 15.1787 106.396 15.4599 106.798 15.6781C107.198 15.8976 107.675 16.0061 108.229 16.0061C108.783 16.0061 109.26 15.8976 109.66 15.6781C110.061 15.4599 110.392 15.1787 110.654 14.8347C110.915 14.4919 111.112 14.101 111.243 13.6646C111.373 13.2268 111.439 12.789 111.439 12.3526C111.439 11.9148 111.373 11.4824 111.243 11.0527C111.112 10.6229 110.915 10.2373 110.654 9.89329C110.392 9.54922 110.061 9.2721 109.66 9.06192C109.26 8.85039 108.783 8.74463 108.229 8.74463C107.675 8.74463 107.198 8.85039 106.798 9.06192C106.396 9.2721 106.066 9.54922 105.804 9.89329C105.543 10.2373 105.347 10.6229 105.215 11.0527C105.084 11.4824 105.019 11.9148 105.019 12.3526ZM102.202 12.3527C102.202 11.4624 102.359 10.6551 102.675 9.92817C102.99 9.20256 103.417 8.58138 103.956 8.06596C104.496 7.55053 105.135 7.15292 105.873 6.87178C106.612 6.59064 107.398 6.45007 108.229 6.45007C109.06 6.45007 109.846 6.59064 110.584 6.87178C111.324 7.15292 111.962 7.55053 112.502 8.06596C113.04 8.58138 113.468 9.20256 113.783 9.92817C114.099 10.6551 114.257 11.4624 114.257 12.3527C114.257 13.2429 114.099 14.0542 113.783 14.7879C113.468 15.5229 113.04 16.1507 112.502 16.6742C111.962 17.1963 111.324 17.606 110.584 17.9032C109.846 18.199 109.06 18.349 108.229 18.349C107.398 18.349 106.612 18.199 105.873 17.9032C105.135 17.606 104.496 17.1963 103.956 16.6742C103.417 16.1507 102.99 15.5229 102.675 14.7879C102.359 14.0542 102.202 13.2429 102.202 12.3527Z" fill="#0B2F37"/>
<path id="Fill 16" fill-rule="evenodd" clip-rule="evenodd" d="M116.325 6.77807H118.981V8.651H119.027C119.335 7.99634 119.766 7.46485 120.32 7.05921C120.875 6.65356 121.522 6.45007 122.26 6.45007C122.367 6.45007 122.483 6.45409 122.607 6.46212C122.729 6.47015 122.838 6.4889 122.93 6.52103V9.0968C122.745 9.04995 122.587 9.01915 122.456 9.00309C122.326 8.98702 122.198 8.98033 122.076 8.98033C121.445 8.98033 120.936 9.0968 120.552 9.33109C120.166 9.56403 119.866 9.84651 119.65 10.1745C119.434 10.5025 119.289 10.8385 119.212 11.1813C119.135 11.524 119.096 11.7984 119.096 12.0006V18.0196H116.325V6.77807Z" fill="#0B2F37"/>
<path id="Fill 17" fill-rule="evenodd" clip-rule="evenodd" d="M131.977 11.2749C131.977 10.9162 131.928 10.5721 131.828 10.2441C131.727 9.9161 131.57 9.62692 131.354 9.37792C131.138 9.12757 130.865 8.92809 130.534 8.78083C130.203 8.63223 129.814 8.55859 129.369 8.55859C128.537 8.55859 127.833 8.81162 127.255 9.31901C126.677 9.8264 126.358 10.4784 126.297 11.2749H131.977ZM134.75 12.5401C134.75 12.6646 134.75 12.7891 134.75 12.9149C134.75 13.0395 134.742 13.164 134.726 13.2885H126.297C126.328 13.6954 126.432 14.0663 126.609 14.401C126.786 14.737 127.021 15.0262 127.314 15.2685C127.605 15.5108 127.936 15.7022 128.306 15.8428C128.676 15.982 129.06 16.053 129.461 16.053C130.154 16.053 130.738 15.9245 131.217 15.6661C131.692 15.4091 132.086 15.0543 132.393 14.6004L134.241 16.0999C133.148 17.5993 131.562 18.349 129.483 18.349C128.622 18.349 127.829 18.2111 127.106 17.938C126.382 17.6649 125.755 17.2793 125.224 16.7786C124.692 16.2793 124.276 15.6661 123.976 14.9405C123.676 14.2149 123.526 13.3902 123.526 12.4691C123.526 11.5641 123.676 10.7395 123.976 9.99779C124.276 9.25745 124.688 8.62422 125.212 8.10076C125.735 7.57865 126.355 7.17167 127.071 6.88383C127.787 6.59466 128.561 6.45007 129.392 6.45007C130.162 6.45007 130.873 6.57859 131.528 6.83698C132.181 7.09402 132.747 7.4769 133.226 7.98429C133.703 8.49168 134.075 9.12358 134.344 9.88132C134.615 10.6391 134.75 11.524 134.75 12.5401Z" fill="#0B2F37"/>
<g id="Group">
<path id="Fill 18" fill-rule="evenodd" clip-rule="evenodd" d="M18.4165 0.38414C17.9249 -0.111201 17.127 -0.111201 16.6367 0.38414L4.90381 12.2362L6.94742 14.3019L17.4902 3.65205L20.7199 6.91461L10.1798 17.5631L12.2234 19.6275L22.7649 8.97898L25.6169 11.8613H29.7783L18.4165 0.38414Z" fill="#0B2F37"/>
<path id="Fill 19" fill-rule="evenodd" clip-rule="evenodd" d="M13.1165 0.409701C12.8567 0.135255 12.593 0.00405641 12.3001 4.01279e-05C11.8389 -0.00397615 11.4519 0.294567 11.3353 0.41104L0 11.8615H4.08722L14.2708 1.57576L13.1165 0.409701Z" fill="#0B2F37"/>
<path id="Fill 20" fill-rule="evenodd" clip-rule="evenodd" d="M11.2027 23.9999H13.0489L15.123 22.0266L24.8083 12.2429L22.7646 10.1785L12.2232 20.827L8.99215 17.5632L19.5336 6.91465L17.49 4.85028L6.94721 15.5001L4.10047 12.6245H0.0742188L9.91191 22.5621L11.2027 23.9999Z" fill="#0B2F37"/>
<path id="Fill 21" fill-rule="evenodd" clip-rule="evenodd" d="M18.4654 24L29.7047 12.6246H25.6164L15.4531 22.8915L16.5517 24H18.4654Z" fill="#0B2F37"/>
</g>
</g>
</svg>
